<svg width="16" height="15" viewBox="0 0 16 15" fill="none" xmlns="http://www.w3.org/2000/svg">
<path fill-rule="evenodd" clip-rule="evenodd" d="M10.441 12.4348L10.4412 12.4346C12.0529 11.0613 13.4447 9.87519 14.4132 8.70654C15.4958 7.40027 16 6.16162 16 4.80835C16 3.49377 15.5492 2.28088 14.7307 1.39307C13.9025 0.494751 12.766 0 11.5304 0C10.6068 0 9.76099 0.291992 9.01636 0.867798C8.8985 0.958964 8.78412 1.05652 8.67337 1.16029C8.43102 1.38737 8.20602 1.64422 8 1.92908C7.79407 1.64431 7.56904 1.38742 7.32662 1.16032C7.21583 1.05653 7.10141 0.958965 6.98352 0.867798C6.23901 0.291992 5.39319 0 4.4696 0C3.23401 0 2.09741 0.494751 1.26917 1.39307C0.450806 2.28088 0 3.49377 0 4.80847C0 6.16162 0.504272 7.40027 1.58691 8.70667C2.55542 9.87524 3.94739 11.0615 5.55933 12.4352L5.56048 12.4362C6.11061 12.905 6.7341 13.4364 7.38147 14.0024C7.55261 14.1523 7.77222 14.2349 8 14.2349C8.22766 14.2349 8.44739 14.1523 8.61829 14.0027C9.26084 13.4408 9.88021 12.9128 10.4276 12.4463L10.441 12.4348ZM2.00436 2.07092C1.37199 2.75702 1 3.72078 1 4.80847C1 5.87432 1.38413 6.89477 2.35685 8.06855C3.25796 9.15581 4.57342 10.2812 6.20794 11.6741L6.20799 11.6741L6.21093 11.6766C6.74901 12.1352 7.36215 12.6578 8.00002 13.2149C8.63302 12.6619 9.24202 12.1428 9.77724 11.6866L9.79235 11.6738L9.79244 11.6737C11.4267 10.281 12.7422 9.15581 13.6432 8.06847L13.6433 8.06842C14.6159 6.89484 15 5.87439 15 4.80835C15 3.72077 14.628 2.75701 13.9955 2.07092C13.359 1.38052 12.4902 1 11.5304 1C10.8329 1 10.2013 1.21565 9.62821 1.65877M7.99995 3.63554L7.18968 2.51506C6.94123 2.1715 6.6662 1.88653 6.37179 1.65886L6.37174 1.65882C5.79877 1.21569 5.16721 1 4.4696 1C3.5098 1 2.64097 1.38051 2.00445 2.07083M7.99995 3.63554L8.81029 2.51511ZM8.81029 2.51511C9.05885 2.17142 9.33377 1.88656 9.62808 1.65887Z" fill="#ED165F"/>
</svg>
